<svg width="100%" height="100%" xmlns="http://www.w3.org/2000/svg" data-name="Layer 1" preserveAspectRatio='none' >
 <g id="Layer_1">
  <title>Layer 1</title>
  <rect stroke-width="0" id="svg_2" height="1" width="1" y="564.46395" x="892.95097" stroke="#000" fill="#5e3aee"/>
  <rect id="svg_3" height="0" width="1" y="459.46395" x="921.95097" stroke="#000" fill="#5e3aee"/>
  <rect stroke="#cece35" stroke-width="0" id="svg_4" height="1.6014" width="27.99311" y="220.9549" x="677.36094" fill="#5e3aee" transform="rotate(12 691.358 221.756)"/>
  <rect stroke="#cece35" stroke-width="0" id="svg_5" height="2.53034" width="21.9019" y="300.6988" x="649" fill="#5e3aee" transform="rotate(103 659.951 301.964)"/>
  <rect stroke="#cece35" stroke-width="0" id="svg_6" height="1.86194" width="32.99757" y="142.53298" x="699.95217" fill="#5e3aee" transform="rotate(12 716.451 143.464)"/>
  <rect stroke="#cece35" stroke-width="0" id="svg_8" height="3" width="40" y="52.78343" x="860.0836" fill="#5e3aee" transform="rotate(12 880.081 54.2829)"/>
  <rect stroke="#cece35" stroke-width="0" id="svg_9" height="3.341" width="40.46834" y="506.29347" x="571.71678" fill="#5e3aee" transform="rotate(12 591.951 507.964)"/>
  <rect stroke="#cece35" stroke-width="0" id="svg_11" height="2.75071" width="40.63661" y="358.08862" x="759.28185" fill="#5e3aee" transform="rotate(23.9853 779.6 359.464)"/>
  <rect stroke="#cece35" stroke-width="0" id="svg_12" height="3.25607" width="31.24918" y="529.33616" x="1104.82634" fill="#5e3aee" transform="rotate(-23 1120.45 530.964)"/>
  <rect stroke="#cece35" stroke-width="0" id="svg_13" height="3" width="35" y="558.78343" x="779.0836" fill="#5e3aee" transform="rotate(71 796.584 560.283)"/>
  <line stroke-width="5" id="svg_14" y2="243.46395" x2="586.95097" y1="216.46395" x1="554.95097" stroke="#cfd8dc" fill="none"/>
  <line stroke-width="5" id="svg_15" y2="277.46395" x2="1046.95097" y1="250.46395" x1="1014.95097" stroke="#cfd8dc" fill="none" transform="rotate(-117 1030.95 263.964)"/>
  <line stroke-width="5" id="svg_16" y2="355.46395" x2="640.95097" y1="328.46395" x1="608.95097" stroke="#cfd8dc" fill="none" transform="rotate(-62 624.951 341.964)"/>
  <line stroke="#cfd8dc" stroke-width="5" id="svg_17" y2="124.44267" x2="858.97322" y1="101.48523" x1="830.92877" fill="none" transform="rotate(-71 844.951 112.964)"/>
  <line stroke="#cfd8dc" stroke-width="5" id="svg_18" y2="453.44267" x2="712.97322" y1="430.48523" x1="684.92877" fill="none" transform="rotate(26 698.951 441.964)"/>
  <line stroke="#cfd8dc" stroke-width="5" id="svg_19" y2="453.44267" x2="712.97322" y1="430.48523" x1="684.92877" fill="none" transform="rotate(26 698.951 441.964)"/>
  <line stroke="#cfd8dc" stroke-width="5" id="svg_20" y2="560.44267" x2="974.97322" y1="537.48523" x1="946.92877" fill="none" transform="rotate(149 960.951 548.964)"/>
  <line stroke="#cfd8dc" stroke-width="5" id="svg_21" y2="453.44267" x2="712.97322" y1="430.48523" x1="684.92877" fill="none" transform="rotate(26 698.951 441.964)"/>
  <line stroke="#cfd8dc" stroke-width="5" id="svg_22" y2="116.44267" x2="983.97322" y1="93.48523" x1="955.92877" fill="none" transform="rotate(26 969.951 104.964)"/>
  <line stroke="#cfd8dc" stroke-width="5" id="svg_23" y2="453.44267" x2="712.97322" y1="430.48523" x1="684.92877" fill="none" transform="rotate(26 698.951 441.964)"/>
  <line stroke="#cfd8dc" stroke-width="5" id="svg_24" y2="503.93341" x2="741.10424" y1="530.56397" x1="713.05979" fill="none" transform="rotate(26 727.082 517.249)"/>
  <ellipse stroke="#cfd8dc" ry="6.5" rx="7" id="svg_25" cy="202.96395" cx="647.95097" stroke-width="5" fill="#cfd8dc"/>
  <ellipse stroke="#cfd8dc" ry="6.5" rx="7" id="svg_26" cy="160.96395" cx="785.95097" stroke-width="5" fill="#cfd8dc"/>
  <ellipse stroke="#cfd8dc" ry="6.5" rx="7" id="svg_27" cy="127.96395" cx="1046.95097" stroke-width="5" fill="#cfd8dc"/>
  <ellipse stroke="#cfd8dc" ry="6.5" rx="7" id="svg_28" cy="461.96395" cx="892.95097" stroke-width="5" fill="#cfd8dc"/>
  <ellipse stroke="#cfd8dc" ry="6.5" rx="7" id="svg_29" cy="552.96395" cx="1070.95097" stroke-width="5" fill="#cfd8dc"/>
  <ellipse stroke="#cfd8dc" ry="6.5" rx="7" id="svg_30" cy="452.96395" cx="632.95097" stroke-width="5" fill="#cfd8dc"/>
  <line stroke="#cfd8dc" stroke-width="5" id="svg_31" y2="200.44267" x2="871.97322" y1="177.48523" x1="843.92877" fill="none" transform="rotate(-180 857.951 188.964)"/>
  <line stroke="#cfd8dc" stroke-width="5" id="svg_32" y2="198.44267" x2="1122.97322" y1="175.48523" x1="1094.92877" fill="none" transform="rotate(2 1108.95 186.964)"/>
  <line stroke="#cfd8dc" stroke-width="5" id="svg_33" y2="124.44267" x2="858.97322" y1="101.48523" x1="830.92877" fill="none" transform="rotate(-71 844.951 112.964)"/>
  <line stroke="#cfd8dc" stroke-width="5" id="svg_34" y2="326.4361" x2="1136.98241" y1="317.49181" x1="1118.91954" fill="none" transform="rotate(-71 1127.95 321.964)"/>
  <line stroke="#cfd8dc" stroke-width="5" id="svg_35" y2="437.36621" x2="1102.45433" y1="422.56168" x1="1081.44763" fill="none" transform="rotate(-71 1091.95 429.964)"/>
  <rect stroke="#cece35" stroke-width="0" id="svg_36" height="2.10291" width="26.29466" y="426.9826" x="1120.00301" fill="#5e3aee" transform="rotate(60 1133.15 428.034)"/>
  <line stroke="#cfd8dc" stroke-width="5" id="svg_37" y2="480.44267" x2="838.97322" y1="457.48523" x1="810.92877" fill="none" transform="rotate(-180 824.951 468.964)"/>
 </g>

</svg>